# xmcd
#
# Track frame offsets:
#	150
#	14737
#	26549
#	43161
#	52425
#	63749
#	75863
#	86177
#	99152
#	113514
#	126226
#	138189
#
# Disc length: 1970 seconds
#
# Revision: 1
# Processed by: cddbd v1.5.1PL0 Copyright (c) Steve Scherf et al.
# Submitted via: audiograbber 1.83.01
#
DISCID=a007b00c
DTITLE=Peggy Little - A Little Bit of Peggy Little
DYEAR=1900
DGENRE=Country
TTITLE0=Sweet Baby Girl
TTITLE1=Come On Home
TTITLE2=I'm Only A Woman
TTITLE3=You Ain't Woman Enough
TTITLE4=Make The World Go Away
TTITLE5=Softly And Tenderly
TTITLE6=Son of A Preacher Man
TTITLE7=Today I Started Loving You Again
TTITLE8=One More Nightly Cry
TTITLE9=Help Me Love You Now
TTITLE10=D-I-V-O-R-C-E
TTITLE11=My Heart's Not In It Anymore
EXTD=
EXTT0=
EXTT1=
EXTT2=
EXTT3=
EXTT4=
EXTT5=
EXTT6=
EXTT7=
EXTT8=
EXTT9=
EXTT10=
EXTT11=
PLAYORDER=
